<svg width="14" height="14" viewBox="0 0 14 14" fill="none" xmlns="http://www.w3.org/2000/svg">
<path d="M13.0428 12.6677H10.2827V11.1013C9.79081 11.7975 9.21424 12.3154 8.55283 12.6549C7.89985 12.9945 7.14942 13.1643 6.30146 13.1643C4.59705 13.1643 3.25305 12.5828 2.2694 11.4197C1.29425 10.2482 0.806641 8.64787 0.806641 6.61888C0.806641 4.69173 1.30699 3.13815 2.30757 1.95814C3.30815 0.769575 4.61404 0.175293 6.22512 0.175293C7.20877 0.175293 8.04829 0.383319 8.74356 0.799311C9.44739 1.20681 9.96043 1.79684 10.2827 2.56935V0.595532H13.0428V12.6677ZM10.359 6.5934C10.359 5.34542 10.0664 4.37338 9.48132 3.67727C8.90468 2.9811 8.0949 2.63307 7.0519 2.63307C6.0089 2.63307 5.18637 2.99384 4.58437 3.71544C3.99074 4.4286 3.69399 5.42188 3.69399 6.69528C3.69399 7.97718 3.98231 8.96622 4.55888 9.66239C5.13551 10.3585 5.94955 10.7066 7.00104 10.7066C7.99313 10.7066 8.79873 10.3288 9.41772 9.57324C10.0452 8.81766 10.359 7.82438 10.359 6.5934Z" fill="white"/>
</svg>
