<svg width="13" height="14" viewBox="0 0 13 14" fill="none" xmlns="http://www.w3.org/2000/svg">
<path d="M12.7836 7.03912H3.14214C3.21034 8.16822 3.54539 9.05111 4.14727 9.68787C4.74915 10.3161 5.55025 10.6302 6.55119 10.6302C7.44145 10.6302 8.18333 10.4434 8.77684 10.0699C9.37034 9.69631 9.88787 9.09359 10.3288 8.26161L12.6562 9.5605C11.9783 10.7745 11.1389 11.6786 10.138 12.2729C9.13761 12.8672 7.96316 13.1643 6.61461 13.1643C4.68154 13.1643 3.14214 12.5743 1.99761 11.3943C0.853079 10.2142 0.280518 8.63937 0.280518 6.6698C0.280518 4.77663 0.869826 3.22305 2.04846 2.00905C3.23547 0.786567 4.75752 0.175293 6.61461 0.175293C8.55667 0.175293 10.0703 0.731405 11.1556 1.84351C12.2409 2.95567 12.7836 4.5135 12.7836 6.51699V7.03912ZM9.92196 5.17993C9.81128 4.31397 9.48103 3.65603 8.9294 3.20611C8.37838 2.74764 7.62393 2.51844 6.66547 2.51844C5.75846 2.51844 5.02914 2.73915 4.47812 3.18063C3.9265 3.62205 3.5406 4.28848 3.32043 5.17993H9.92196Z" fill="white"/>
</svg>
