<svg width="12" height="13" viewBox="0 0 12 13" fill="none" xmlns="http://www.w3.org/2000/svg">
<path d="M0.361328 12.6677V0.595532H2.95612V2.56935C3.50774 1.73737 4.15628 1.13041 4.90235 0.748337C5.64842 0.366328 6.55603 0.175293 7.62458 0.175293C8.52321 0.175293 9.28663 0.319661 9.91364 0.608277C10.5496 0.888456 11.0462 1.30869 11.4022 1.86899C11.614 2.20009 11.7665 2.58635 11.8599 3.02782C11.9532 3.46924 11.9999 4.24181 11.9999 5.34542V12.6677H9.21423V6.46608C9.21423 4.87852 9.01919 3.82582 8.62911 3.30794C8.2474 2.78163 7.56534 2.51844 6.58116 2.51844C5.9368 2.51844 5.36065 2.63726 4.8515 2.87502C4.35133 3.11272 3.95705 3.44806 3.66868 3.88099C3.46526 4.16966 3.32108 4.54317 3.23612 5.00164C3.16014 5.45156 3.12184 6.17316 3.12184 7.16644V12.6677H0.361328Z" fill="white"/>
</svg>
